<?xml version="1.0" encoding="utf-8" standalone="no"?>
<!DOCTYPE svg PUBLIC "-//W3C//DTD SVG 1.1//EN"
  "http://www.w3.org/Graphics/SVG/1.1/DTD/svg11.dtd">
<svg xmlns:xlink="http://www.w3.org/1999/xlink" width="416.16pt" height="263.88pt" viewBox="0 0 416.16 263.88" xmlns="http://www.w3.org/2000/svg" version="1.1">
 <metadata>
  <rdf:RDF xmlns:dc="http://purl.org/dc/elements/1.1/" xmlns:cc="http://creativecommons.org/ns#" xmlns:rdf="http://www.w3.org/1999/02/22-rdf-syntax-ns#">
   <cc:Work>
    <dc:type rdf:resource="http://purl.org/dc/dcmitype/StillImage"/>
    <dc:date>2026-07-05T02:22:23.602068</dc:date>
    <dc:format>image/svg+xml</dc:format>
    <dc:creator>
     <cc:Agent>
      <dc:title>Matplotlib v3.10.7, https://matplotlib.org/</dc:title>
     </cc:Agent>
    </dc:creator>
   </cc:Work>
  </rdf:RDF>
 </metadata>
 <defs>
  <style type="text/css">*{stroke-linejoin: round; stroke-linecap: butt}</style>
 </defs>
 <g id="figure_1">
  <g id="patch_1">
   <path d="M 0 263.88 
L 416.16 263.88 
L 416.16 0 
L 0 0 
z
" style="fill: #ffffff"/>
  </g>
  <g id="axes_1">
   <g id="patch_2">
    <path d="M 27.68976 63.9567 
L 89.15904 63.9567 
Q 90.36432 63.9567 90.36432 63.02115 
L 90.36432 37.1376 
Q 90.36432 36.20205 89.15904 36.20205 
L 27.68976 36.20205 
Q 26.48448 36.20205 26.48448 37.1376 
L 26.48448 63.02115 
Q 26.48448 63.9567 27.68976 63.9567 
z
" clip-path="url(#pecd013ab4e)" style="fill: #7884b4; stroke: #4d4d4d; stroke-width: 0.7; stroke-linejoin: miter"/>
   </g>
   <g id="patch_3">
    <path d="M 132.14736 63.9567 
L 193.61664 63.9567 
Q 194.82192 63.9567 194.82192 63.02115 
L 194.82192 37.1376 
Q 194.82192 36.20205 193.61664 36.20205 
L 132.14736 36.20205 
Q 130.94208 36.20205 130.94208 37.1376 
L 130.94208 63.02115 
Q 130.94208 63.9567 132.14736 63.9567 
z
" clip-path="url(#pecd013ab4e)" style="fill: #d49a73; stroke: #4d4d4d; stroke-width: 0.7; stroke-linejoin: miter"/>
   </g>
   <g id="patch_4">
    <path d="M 236.60496 63.9567 
L 298.07424 63.9567 
Q 299.27952 63.9567 299.27952 63.02115 
L 299.27952 37.1376 
Q 299.27952 36.20205 298.07424 36.20205 
L 236.60496 36.20205 
Q 235.39968 36.20205 235.39968 37.1376 
L 235.39968 63.02115 
Q 235.39968 63.9567 236.60496 63.9567 
z
" clip-path="url(#pecd013ab4e)" style="fill: #6fa89a; stroke: #4d4d4d; stroke-width: 0.7; stroke-linejoin: miter"/>
   </g>
   <g id="patch_5">
    <path d="M 341.06256 63.9567 
L 402.53184 63.9567 
Q 403.73712 63.9567 403.73712 63.02115 
L 403.73712 37.1376 
Q 403.73712 36.20205 402.53184 36.20205 
L 341.06256 36.20205 
Q 339.85728 36.20205 339.85728 37.1376 
L 339.85728 63.02115 
Q 339.85728 63.9567 341.06256 63.9567 
z
" clip-path="url(#pecd013ab4e)" style="fill: #b79ac8; stroke: #4d4d4d; stroke-width: 0.7; stroke-linejoin: miter"/>
   </g>
   <g id="patch_6">
    <path d="M 87.95376 118.53045 
L 328.20624 118.53045 
Q 329.41152 118.53045 329.41152 117.5949 
L 329.41152 88.59285 
Q 329.41152 87.6573 328.20624 87.6573 
L 87.95376 87.6573 
Q 86.74848 87.6573 86.74848 88.59285 
L 86.74848 117.5949 
Q 86.74848 118.53045 87.95376 118.53045 
z
" clip-path="url(#pecd013ab4e)" style="fill: #e8eaf2; stroke: #4d4d4d; stroke-width: 0.7; stroke-linejoin: miter"/>
   </g>
   <g id="patch_7">
    <path d="M 87.95376 169.9857 
L 328.20624 169.9857 
Q 329.41152 169.9857 329.41152 169.05015 
L 329.41152 140.0481 
Q 329.41152 139.11255 328.20624 139.11255 
L 87.95376 139.11255 
Q 86.74848 139.11255 86.74848 140.0481 
L 86.74848 169.05015 
Q 86.74848 169.9857 87.95376 169.9857 
z
" clip-path="url(#pecd013ab4e)" style="fill: #dce8f4; stroke: #4d4d4d; stroke-width: 0.7; stroke-linejoin: miter"/>
   </g>
   <g id="patch_8">
    <path d="M 55.81296 226.1187 
L 360.34704 226.1187 
Q 361.55232 226.1187 361.55232 225.18315 
L 361.55232 191.50335 
Q 361.55232 190.5678 360.34704 190.5678 
L 55.81296 190.5678 
Q 54.60768 190.5678 54.60768 191.50335 
L 54.60768 225.18315 
Q 54.60768 226.1187 55.81296 226.1187 
z
" clip-path="url(#pecd013ab4e)" style="fill: #eef4ea; stroke: #4d4d4d; stroke-width: 0.7; stroke-linejoin: miter"/>
   </g>
   <g id="text_1">
    <text style="font-weight: 700; font-size: 9px; font-family: 'Arial', 'Helvetica', 'DejaVu Sans', sans-serif; text-anchor: start" x="15.2352" y="19.0503" transform="rotate(-0 15.2352 19.0503)">a</text>
   </g>
   <g id="text_2">
    <text style="font-weight: 700; font-size: 9px; font-family: 'Arial', 'Helvetica', 'DejaVu Sans', sans-serif; text-anchor: start" x="29.2968" y="19.0503" transform="rotate(-0 29.2968 19.0503)">Fold-safe source decomposition</text>
   </g>
   <g id="text_3">
    <text style="font-weight: 700; font-size: 7px; font-family: 'Arial', 'Helvetica', 'DejaVu Sans', sans-serif" transform="translate(33.72315 48.099797)">Patient speech</text>
    <text style="font-weight: 700; font-size: 7px; font-family: 'Arial', 'Helvetica', 'DejaVu Sans', sans-serif" transform="translate(44.423853 55.596141)">(C2 text)</text>
   </g>
   <g id="patch_9">
    <path d="M 60.600191 64.278124 
Q 133.352186 76.118776 205.22137 87.815748 
" style="fill: none; stroke: #767676; stroke-width: 0.8; stroke-linecap: round"/>
    <path d="M 202.682629 85.984137 
L 205.22137 87.815748 
L 202.232837 88.747774 
" style="fill: none; stroke: #767676; stroke-width: 0.8; stroke-linecap: round"/>
   </g>
   <g id="text_4">
    <text style="font-weight: 700; font-size: 7px; font-family: 'Arial', 'Helvetica', 'DejaVu Sans', sans-serif" transform="translate(136.825047 48.196922)">Clinical-domain</text>
    <text style="font-weight: 700; font-size: 7px; font-family: 'Arial', 'Helvetica', 'DejaVu Sans', sans-serif" transform="translate(151.41075 55.590891)">counts</text>
   </g>
   <g id="patch_10">
    <path d="M 164.843326 64.908353 
Q 185.581571 76.118921 205.532993 86.904153 
" style="fill: none; stroke: #767676; stroke-width: 0.8; stroke-linecap: round"/>
    <path d="M 203.735607 84.341069 
L 205.532993 86.904153 
L 202.404094 86.804212 
" style="fill: none; stroke: #767676; stroke-width: 0.8; stroke-linecap: round"/>
   </g>
   <g id="text_5">
    <text style="font-weight: 700; font-size: 7px; font-family: 'Arial', 'Helvetica', 'DejaVu Sans', sans-serif" transform="translate(237.587959 48.196922)">Protocol-template</text>
    <text style="font-weight: 700; font-size: 7px; font-family: 'Arial', 'Helvetica', 'DejaVu Sans', sans-serif" transform="translate(251.970225 55.590891)">presence</text>
   </g>
   <g id="patch_11">
    <path d="M 265.685969 64.71535 
Q 237.809448 76.119174 210.760763 87.184344 
" style="fill: none; stroke: #767676; stroke-width: 0.8; stroke-linecap: round"/>
    <path d="M 213.882379 87.419958 
L 210.760763 87.184344 
L 212.822223 84.82842 
" style="fill: none; stroke: #767676; stroke-width: 0.8; stroke-linecap: round"/>
   </g>
   <g id="text_6">
    <text style="font-weight: 700; font-size: 7px; font-family: 'Arial', 'Helvetica', 'DejaVu Sans', sans-serif" transform="translate(339.896341 48.096516)">Sensitivity sources</text>
    <text style="font-weight: 700; font-size: 7px; font-family: 'Arial', 'Helvetica', 'DejaVu Sans', sans-serif" transform="translate(350.405638 55.684734)">(C5 / C3 text)</text>
   </g>
   <g id="patch_12">
    <path d="M 370.019638 64.250287 
Q 290.040691 76.118605 210.946483 87.855634 
" style="fill: none; stroke: #767676; stroke-width: 0.8; stroke-linecap: round"/>
    <path d="M 213.921655 88.82947 
L 210.946483 87.855634 
L 213.510655 86.059798 
" style="fill: none; stroke: #767676; stroke-width: 0.8; stroke-linecap: round"/>
   </g>
   <g id="text_7">
    <text style="font-weight: 700; font-size: 7.2px; font-family: 'Arial', 'Helvetica', 'DejaVu Sans', sans-serif; text-anchor: middle" x="208.08" y="104.956875" transform="rotate(-0 208.08 104.956875)">Within each outer fold: fit TF-IDF / scaling on training participants only</text>
   </g>
   <g id="patch_13">
    <path d="M 208.08 120.844962 
Q 208.08 128.82115 208.08 135.791107 
" style="fill: none; stroke: #000000; stroke-width: 0.9; stroke-linecap: round"/>
    <path d="M 209.48 132.991107 
L 208.08 135.791107 
L 206.68 132.991107 
" style="fill: none; stroke: #000000; stroke-width: 0.9; stroke-linecap: round"/>
   </g>
   <g id="text_8">
    <text style="font-weight: 700; font-size: 7.2px; font-family: 'Arial', 'Helvetica', 'DejaVu Sans', sans-serif; text-anchor: middle" x="208.08" y="156.412125" transform="rotate(-0 208.08 156.412125)">10×5 participant-level OOF predictions for M0–M5 joint models</text>
   </g>
   <g id="patch_14">
    <path d="M 208.08 172.300212 
Q 208.08 180.2764 208.08 187.246357 
" style="fill: none; stroke: #000000; stroke-width: 0.9; stroke-linecap: round"/>
    <path d="M 209.48 184.446357 
L 208.08 187.246357 
L 206.68 184.446357 
" style="fill: none; stroke: #000000; stroke-width: 0.9; stroke-linecap: round"/>
   </g>
   <g id="text_9">
    <text style="font-weight: 700; font-size: 7.2px; font-family: 'Arial', 'Helvetica', 'DejaVu Sans', sans-serif" transform="translate(103.2705 206.350988)">Participant bootstrap CI + paired permutation tests + BH-FDR</text>
    <text style="font-weight: 700; font-size: 7.2px; font-family: 'Arial', 'Helvetica', 'DejaVu Sans', sans-serif" transform="translate(78.365813 214.061512)">Only domain-count permutation importance remained significant (q=0.0039)</text>
   </g>
   <g id="text_10">
    <text style="font-size: 6.8px; font-family: 'Arial', 'Helvetica', 'DejaVu Sans', sans-serif; text-anchor: middle; fill: #767676" x="208.08" y="243.5823" transform="rotate(-0 208.08 243.5823)">No incremental model comparison survived the seven-test FDR family.</text>
   </g>
  </g>
 </g>
 <defs>
  <clipPath id="pecd013ab4e">
   <rect x="7.2" y="7.2" width="401.76" height="249.48"/>
  </clipPath>
 </defs>
</svg>
