<?xml version="1.0" encoding="utf-8" standalone="no"?>
<!DOCTYPE svg PUBLIC "-//W3C//DTD SVG 1.1//EN"
  "http://www.w3.org/Graphics/SVG/1.1/DTD/svg11.dtd">
<svg xmlns:xlink="http://www.w3.org/1999/xlink" width="528.6pt" height="334.2pt" viewBox="0 0 528.6 334.2" xmlns="http://www.w3.org/2000/svg" version="1.1">
 <metadata>
  <rdf:RDF xmlns:dc="http://purl.org/dc/elements/1.1/" xmlns:cc="http://creativecommons.org/ns#" xmlns:rdf="http://www.w3.org/1999/02/22-rdf-syntax-ns#">
   <cc:Work>
    <dc:type rdf:resource="http://purl.org/dc/dcmitype/StillImage"/>
    <dc:date>2026-07-05T00:29:40.309432</dc:date>
    <dc:format>image/svg+xml</dc:format>
    <dc:creator>
     <cc:Agent>
      <dc:title>Matplotlib v3.11.0, https://matplotlib.org/</dc:title>
     </cc:Agent>
    </dc:creator>
   </cc:Work>
  </rdf:RDF>
 </metadata>
 <defs>
  <style type="text/css">*{stroke-linejoin: round; stroke-linecap: butt}</style>
 </defs>
 <g id="figure_1">
  <g id="patch_1">
   <path d="M 0 334.2 
L 528.6 334.2 
L 528.6 0 
L 0 0 
z
" style="fill: #ffffff"/>
  </g>
  <g id="axes_1">
   <g id="patch_2">
    <path d="M 161.46 64.4975 
L 367.14 64.4975 
Q 374.853 64.4975 374.853 60.5 
L 374.853 39.18 
Q 374.853 35.1825 367.14 35.1825 
L 161.46 35.1825 
Q 153.747 35.1825 153.747 39.18 
L 153.747 60.5 
Q 153.747 64.4975 161.46 64.4975 
z
" clip-path="url(#p6c655c01e3)" style="fill: #f0f0f0; stroke: #888888; stroke-linejoin: miter"/>
   </g>
   <g id="patch_3">
    <path d="M 32.91 103.14 
L 166.602 103.14 
Q 171.744 103.14 171.744 100.475 
L 171.744 84.485 
Q 171.744 81.82 166.602 81.82 
L 32.91 81.82 
Q 27.768 81.82 27.768 84.485 
L 27.768 100.475 
Q 27.768 103.14 32.91 103.14 
z
" clip-path="url(#p6c655c01e3)" style="fill: #d6e8f5; stroke: #000000; stroke-width: 0.5; stroke-linejoin: miter"/>
   </g>
   <g id="patch_4">
    <path d="M 43.194 135.9195 
L 156.318 135.9195 
Q 160.4316 135.9195 160.4316 133.7875 
L 160.4316 120.4625 
Q 160.4316 118.3305 156.318 118.3305 
L 43.194 118.3305 
Q 39.0804 118.3305 39.0804 120.4625 
L 39.0804 133.7875 
Q 39.0804 135.9195 43.194 135.9195 
z
" clip-path="url(#p6c655c01e3)" style="fill: #ffffff; stroke: #aaaaaa; stroke-width: 0.5; stroke-linejoin: miter"/>
   </g>
   <g id="patch_5">
    <path d="M 43.194 154.5745 
L 156.318 154.5745 
Q 160.4316 154.5745 160.4316 152.4425 
L 160.4316 139.1175 
Q 160.4316 136.9855 156.318 136.9855 
L 43.194 136.9855 
Q 39.0804 136.9855 39.0804 139.1175 
L 39.0804 152.4425 
Q 39.0804 154.5745 43.194 154.5745 
z
" clip-path="url(#p6c655c01e3)" style="fill: #ffffff; stroke: #aaaaaa; stroke-width: 0.5; stroke-linejoin: miter"/>
   </g>
   <g id="patch_6">
    <path d="M 43.194 173.2295 
L 156.318 173.2295 
Q 160.4316 173.2295 160.4316 171.0975 
L 160.4316 157.7725 
Q 160.4316 155.6405 156.318 155.6405 
L 43.194 155.6405 
Q 39.0804 155.6405 39.0804 157.7725 
L 39.0804 171.0975 
Q 39.0804 173.2295 43.194 173.2295 
z
" clip-path="url(#p6c655c01e3)" style="fill: #ffffff; stroke: #aaaaaa; stroke-width: 0.5; stroke-linejoin: miter"/>
   </g>
   <g id="patch_7">
    <path d="M 197.454 103.14 
L 331.146 103.14 
Q 336.288 103.14 336.288 100.475 
L 336.288 84.485 
Q 336.288 81.82 331.146 81.82 
L 197.454 81.82 
Q 192.312 81.82 192.312 84.485 
L 192.312 100.475 
Q 192.312 103.14 197.454 103.14 
z
" clip-path="url(#p6c655c01e3)" style="fill: #e8d6f5; stroke: #000000; stroke-width: 0.5; stroke-linejoin: miter"/>
   </g>
   <g id="patch_8">
    <path d="M 207.738 135.9195 
L 320.862 135.9195 
Q 324.9756 135.9195 324.9756 133.7875 
L 324.9756 120.4625 
Q 324.9756 118.3305 320.862 118.3305 
L 207.738 118.3305 
Q 203.6244 118.3305 203.6244 120.4625 
L 203.6244 133.7875 
Q 203.6244 135.9195 207.738 135.9195 
z
" clip-path="url(#p6c655c01e3)" style="fill: #ffffff; stroke: #aaaaaa; stroke-width: 0.5; stroke-linejoin: miter"/>
   </g>
   <g id="patch_9">
    <path d="M 207.738 154.5745 
L 320.862 154.5745 
Q 324.9756 154.5745 324.9756 152.4425 
L 324.9756 139.1175 
Q 324.9756 136.9855 320.862 136.9855 
L 207.738 136.9855 
Q 203.6244 136.9855 203.6244 139.1175 
L 203.6244 152.4425 
Q 203.6244 154.5745 207.738 154.5745 
z
" clip-path="url(#p6c655c01e3)" style="fill: #ffffff; stroke: #aaaaaa; stroke-width: 0.5; stroke-linejoin: miter"/>
   </g>
   <g id="patch_10">
    <path d="M 361.998 103.14 
L 495.69 103.14 
Q 500.832 103.14 500.832 100.475 
L 500.832 84.485 
Q 500.832 81.82 495.69 81.82 
L 361.998 81.82 
Q 356.856 81.82 356.856 84.485 
L 356.856 100.475 
Q 356.856 103.14 361.998 103.14 
z
" clip-path="url(#p6c655c01e3)" style="fill: #f5e6d6; stroke: #000000; stroke-width: 0.5; stroke-linejoin: miter"/>
   </g>
   <g id="patch_11">
    <path d="M 372.282 135.9195 
L 485.406 135.9195 
Q 489.5196 135.9195 489.5196 133.7875 
L 489.5196 120.4625 
Q 489.5196 118.3305 485.406 118.3305 
L 372.282 118.3305 
Q 368.1684 118.3305 368.1684 120.4625 
L 368.1684 133.7875 
Q 368.1684 135.9195 372.282 135.9195 
z
" clip-path="url(#p6c655c01e3)" style="fill: #ffffff; stroke: #aaaaaa; stroke-width: 0.5; stroke-linejoin: miter"/>
   </g>
   <g id="patch_12">
    <path d="M 372.282 154.5745 
L 485.406 154.5745 
Q 489.5196 154.5745 489.5196 152.4425 
L 489.5196 139.1175 
Q 489.5196 136.9855 485.406 136.9855 
L 372.282 136.9855 
Q 368.1684 136.9855 368.1684 139.1175 
L 368.1684 152.4425 
Q 368.1684 154.5745 372.282 154.5745 
z
" clip-path="url(#p6c655c01e3)" style="fill: #ffffff; stroke: #aaaaaa; stroke-width: 0.5; stroke-linejoin: miter"/>
   </g>
   <g id="patch_13">
    <path d="M 84.33 229.7275 
L 444.27 229.7275 
Q 451.983 229.7275 451.983 225.73 
L 451.983 204.41 
Q 451.983 200.4125 444.27 200.4125 
L 84.33 200.4125 
Q 76.617 200.4125 76.617 204.41 
L 76.617 225.73 
Q 76.617 229.7275 84.33 229.7275 
z
" clip-path="url(#p6c655c01e3)" style="fill: #e8e8e8; stroke: #000000; stroke-linejoin: miter"/>
   </g>
   <g id="patch_14">
    <path d="M 58.62 309.6775 
L 469.98 309.6775 
Q 477.693 309.6775 477.693 305.68 
L 477.693 273.7 
Q 477.693 269.7025 469.98 269.7025 
L 58.62 269.7025 
Q 50.907 269.7025 50.907 273.7 
L 50.907 305.68 
Q 50.907 309.6775 58.62 309.6775 
z
" clip-path="url(#p6c655c01e3)" style="fill: #fff3cd; stroke: #d4a017; stroke-linejoin: miter"/>
   </g>
   <g id="text_1">
    <text style="font-weight: 700; font-size: 9px; font-family: 'Arial', 'Helvetica', 'DejaVu Sans', sans-serif; text-anchor: middle" x="264.3" y="20.525" transform="rotate(-0 264.3 20.525)">DAIC-WOZ PHQ-8 Signal Source Decomposition Framework</text>
   </g>
   <g id="text_2">
    <text style="font-weight: 700; font-size: 8px; font-family: 'Arial', 'Helvetica', 'DejaVu Sans', sans-serif; text-anchor: middle" x="264.3" y="49.84" transform="rotate(-0 264.3 49.84)">Complete Interview Transcript</text>
   </g>
   <g id="text_3">
    <text style="font-weight: 700; font-size: 6.5px; font-family: 'Arial', 'Helvetica', 'DejaVu Sans', sans-serif; text-anchor: middle" x="99.756" y="92.48" transform="rotate(-0 99.756 92.48)">Language Content</text>
   </g>
   <g id="text_4">
    <text style="font-size: 6px; font-family: 'Arial', 'Helvetica', 'DejaVu Sans', sans-serif; text-anchor: middle" x="99.756" y="127.125" transform="rotate(-0 99.756 127.125)">Patient Speech</text>
   </g>
   <g id="text_5">
    <text style="font-size: 6px; font-family: 'Arial', 'Helvetica', 'DejaVu Sans', sans-serif; text-anchor: middle" x="99.756" y="145.78" transform="rotate(-0 99.756 145.78)">Interviewer Speech</text>
   </g>
   <g id="text_6">
    <text style="font-size: 6px; font-family: 'Arial', 'Helvetica', 'DejaVu Sans', sans-serif; text-anchor: middle" x="99.756" y="164.435" transform="rotate(-0 99.756 164.435)">Symptom Evidence Text</text>
   </g>
   <g id="text_7">
    <text style="font-weight: 700; font-size: 6.5px; font-family: 'Arial', 'Helvetica', 'DejaVu Sans', sans-serif; text-anchor: middle" x="264.3" y="92.48" transform="rotate(-0 264.3 92.48)">Clinical-Domain State</text>
   </g>
   <g id="text_8">
    <text style="font-size: 6px; font-family: 'Arial', 'Helvetica', 'DejaVu Sans', sans-serif; text-anchor: middle" x="264.3" y="127.125" transform="rotate(-0 264.3 127.125)">Domain Presence</text>
   </g>
   <g id="text_9">
    <text style="font-size: 6px; font-family: 'Arial', 'Helvetica', 'DejaVu Sans', sans-serif; text-anchor: middle" x="264.3" y="145.78" transform="rotate(-0 264.3 145.78)">Domain Count</text>
   </g>
   <g id="text_10">
    <text style="font-weight: 700; font-size: 6.5px; font-family: 'Arial', 'Helvetica', 'DejaVu Sans', sans-serif; text-anchor: middle" x="428.844" y="92.48" transform="rotate(-0 428.844 92.48)">Interview Protocol Structure</text>
   </g>
   <g id="text_11">
    <text style="font-size: 6px; font-family: 'Arial', 'Helvetica', 'DejaVu Sans', sans-serif; text-anchor: middle" x="428.844" y="127.125" transform="rotate(-0 428.844 127.125)">Template Presence</text>
   </g>
   <g id="text_12">
    <text style="font-size: 6px; font-family: 'Arial', 'Helvetica', 'DejaVu Sans', sans-serif; text-anchor: middle" x="428.844" y="145.78" transform="rotate(-0 428.844 145.78)">Module Entry State</text>
   </g>
   <g id="patch_15">
    <path d="M 262.298938 81.82 
Q 182.026993 81.82 102.873082 81.82 
" style="fill: none; stroke: #888888; stroke-linecap: round"/>
    <path d="M 105.673082 83.22 
L 102.873082 81.82 
L 105.673082 80.42 
" style="fill: none; stroke: #888888; stroke-linecap: round"/>
   </g>
   <g id="patch_16">
    <path d="M 264.3 81.82 
Q 264.3 81.82 264.3 81.82 
" style="fill: none; stroke: #888888; stroke-linecap: round"/>
   </g>
   <g id="patch_17">
    <path d="M 266.301062 81.82 
Q 346.573007 81.82 425.726918 81.82 
" style="fill: none; stroke: #888888; stroke-linecap: round"/>
    <path d="M 422.926918 80.42 
L 425.726918 81.82 
L 422.926918 83.22 
" style="fill: none; stroke: #888888; stroke-linecap: round"/>
   </g>
   <g id="text_13">
    <text style="font-weight: 700; font-size: 8px; font-family: 'Arial', 'Helvetica', 'DejaVu Sans', sans-serif; text-anchor: middle" x="264.3" y="215.07" transform="rotate(-0 264.3 215.07)">Source-Level Incremental Model (M0 → M3)</text>
   </g>
   <g id="text_14">
    <text style="font-style: italic; font-size: 6px; font-family: 'Arial', 'Helvetica', 'DejaVu Sans', sans-serif; text-anchor: middle; fill: #555555" x="264.3" y="241.72" transform="rotate(-0 264.3 241.72)">Does patient speech contain baseline signal?</text>
   </g>
   <g id="text_15">
    <text style="font-style: italic; font-size: 6px; font-family: 'Arial', 'Helvetica', 'DejaVu Sans', sans-serif; text-anchor: middle; fill: #555555" x="264.3" y="255.045" transform="rotate(-0 264.3 255.045)">Do domain states add incremental info beyond patient speech?</text>
   </g>
   <g id="text_16">
    <text style="font-style: italic; font-size: 6px; font-family: 'Arial', 'Helvetica', 'DejaVu Sans', sans-serif; text-anchor: middle; fill: #555555" x="264.3" y="268.37" transform="rotate(-0 264.3 268.37)">Does protocol structure add incremental info beyond patient speech?</text>
   </g>
   <g id="text_17">
    <text style="font-weight: 700; font-size: 7px; font-family: 'Arial', 'Helvetica', 'DejaVu Sans', sans-serif; text-anchor: middle; fill: #8b6914" x="264.3" y="283.0275" transform="rotate(-0 264.3 283.0275)">Key Finding</text>
   </g>
   <g id="text_18">
    <text style="font-size: 6px; font-family: 'Arial', 'Helvetica', 'DejaVu Sans', sans-serif; fill: #555555" transform="translate(158.753906 288.489727)">Domain states and protocol structure provide the main incremental contribution;</text>
    <text style="font-size: 6px; font-family: 'Arial', 'Helvetica', 'DejaVu Sans', sans-serif; fill: #555555" transform="translate(155.404219 295.02)">patient speech has baseline predictive power but limited independent contribution.</text>
   </g>
  </g>
 </g>
 <defs>
  <clipPath id="p6c655c01e3">
   <rect x="7.2" y="7.2" width="514.2" height="319.8"/>
  </clipPath>
 </defs>
</svg>
